<svg width="800" height="600" xmlns="http://www.w3.org/2000/svg">

 <g>
  <title>Layer 1</title>
  <path d="m484,299c-6,-2 -18.92578,-2.49756 -24,-3c-21.89294,-2.16782 -39,0 -55,0c-18,0 -32,0 -50,0c-12,0 -25,0 -37,0c-10,0 -18,0 -28,0c-5,0 -11.01761,0.49622 -18,0c-7.05328,-0.50125 -11,-3 -16,-3c-3,0 -6,0 -9,0c-4,0 -6,0 -9,-1c-3,-1 -4.58578,0.41422 -6,-1c-1.41422,-1.41422 1.186,-1.69254 3,-3c2.29454,-1.65381 3.29869,-1.94855 5,-3c1.90211,-1.17557 3.41208,-1.96854 7,-4c1.23065,-0.69678 2.39056,-1.51187 5,-4c4.22003,-4.02386 7.88153,-4.19028 11,-6c3.86798,-2.24469 6,-4 8,-5c2,-1 4.1731,-2.85272 5,-4c1.30746,-1.814 4.93414,-5.14429 7,-6c2.92157,-1.21014 5.65942,-3.56532 12,-7c6.69641,-3.62743 13.85077,-5.21005 18,-8c4.83881,-3.2536 7.797,-4.2565 9,-5c2.69,-1.66251 6.21167,-1.71413 9,-4c1.09366,-0.89659 3.29291,-1.29289 4,-2c0.70709,-0.70711 1,-2 2,-3l1,0l0,-1l1,-1" id="svg_1" stroke="#000" fill="none"/>
  <path d="m229,288c0,1 0,3 0,5c0,2 1.69255,5.186 3,7c1.65381,2.29453 3,5 5,9c1,2 2.1468,2.86325 4,5c3.27602,3.77728 6.45049,9.4505 9,12c2.54951,2.5495 6,7 7,8c2,2 4.07858,5.93814 8,11c3.0621,3.95267 7.41885,7.25659 9,12c0.63245,1.89737 4.84796,7.07971 7,11c2.80591,5.11145 4.69254,7.186 6,9c0.8269,1.14728 2.61731,3.07611 3,4c1.0824,2.61313 4.1731,4.85272 5,6c1.30746,1.814 2,4 3,5c2,2 3,4 4,6l1,0l1,1" id="svg_2" stroke="#000" fill="none"/>
 </g>
</svg>