<svg width="22" height="10" xmlns="http://www.w3.org/2000/svg">
 <g id="Layer_1">
  <title>Layer 1</title>
  <ellipse ry="9.5" rx="8.5" id="svg_1" cy="33.5" cx="37.5" stroke="#000" fill="#84D3DB"/>
  <ellipse ry="4.6473" rx="5.18672" id="svg_8" cy="4.87552" cx="10.04564" stroke="#000" fill="#84D3DB"/>
  <path d="m14.56846,5.04149c-0.08299,0 -0.19028,-0.02431 -0.24896,-0.08299c-0.05868,-0.05868 -0.24896,-0.08299 -0.33195,-0.08299c-0.16598,0 -0.24896,0 -0.41494,0c-0.08299,0 -0.24896,0 -0.33195,0c-0.16597,0 -0.24896,0 -0.33195,0c-0.08299,0 -0.16598,0 -0.33195,0c-0.08299,0 -0.24896,0 -0.33195,0c-0.16598,0 -0.24896,0 -0.41494,0c-0.24896,0 -0.33195,0 -0.58091,0c-0.16598,0 -0.24896,-0.08299 -0.41494,-0.08299c-0.08299,0 -0.14053,-0.03807 -0.24896,-0.08299c-0.07667,-0.03176 -0.16598,0 -0.24896,0c-0.08299,0 -0.24896,0 -0.41494,0c-0.08299,0 -0.33195,0 -0.41494,0c-0.08299,0 -0.16597,0 -0.33195,0c-0.16597,0 -0.24896,0 -0.33195,0c-0.08299,0 -0.16598,0 -0.24896,0c-0.08299,0 -0.16598,0 -0.33195,0c-0.08299,0 -0.16598,0 -0.24896,0c-0.08299,0 -0.16597,0 -0.24896,0c-0.16597,0 -0.24896,0 -0.41494,0c-0.08299,0 -0.30019,0.07667 -0.33195,0c-0.04491,-0.10843 0.19028,-0.02431 0.24896,-0.08299c0.05868,-0.05868 0.08299,-0.08299 0.24896,-0.16598c0.16598,-0.08299 0.28704,-0.05755 0.33195,-0.16598c0.03176,-0.07667 0.10729,-0.10729 0.16597,-0.16598c0.05868,-0.05868 0.1316,0.03438 0.24896,-0.08299c0.05868,-0.05868 0.1514,-0.09111 0.24896,-0.24896c0.08726,-0.14119 0.12106,-0.22352 0.16597,-0.33195c0.03176,-0.07667 0.10729,-0.19028 0.16598,-0.24896c0.05868,-0.05868 0.15135,-0.04035 0.33195,-0.08299c0.08077,-0.01907 0.08299,-0.08299 0.24896,-0.08299c0.08299,0 0.18141,-0.05747 0.33195,-0.16598c0.09521,-0.06862 0.19028,-0.10729 0.24896,-0.16598c0.05868,-0.05868 0.10729,-0.10729 0.16597,-0.16598c0.05868,-0.05868 -0.08521,-0.10205 -0.16597,-0.08299c-0.1806,0.04263 -0.24896,0.16598 -0.33195,0.16598c-0.08299,0 -0.08299,0.08299 -0.16598,0.08299c-0.08299,0 -0.05755,0.12106 -0.16597,0.16598c-0.07667,0.03176 -0.05747,0.09842 -0.16598,0.24896c-0.06862,0.09521 -0.20405,0.14053 -0.24896,0.24896c-0.03176,0.07667 -0.16598,0.16597 -0.24896,0.24896c-0.08299,0.08299 -0.10729,0.10729 -0.16597,0.16598c-0.05868,0.05868 -0.19028,0.10729 -0.24896,0.16598c-0.05868,0.05868 -0.0893,0.05123 -0.16598,0.08299c-0.10843,0.04491 -0.14053,0.12106 -0.24896,0.16598c-0.07667,0.03176 -0.20074,0.03476 -0.33195,0.16598c-0.13122,0.13122 -0.21721,0.17229 -0.24896,0.24896c-0.04491,0.10843 -0.19028,0.10729 -0.24896,0.16598c-0.11736,0.11736 -0.28072,0.0893 -0.24896,0.16598c0.04491,0.10843 0.19028,0.10729 0.24896,0.16598c0.05868,0.05868 0.03807,0.14053 0.08299,0.24896c0.03176,0.07667 0.05755,0.20405 0.16598,0.24896c0.07667,0.03176 0.05755,0.12106 0.16598,0.16598c0.07667,0.03176 0.14053,0.12106 0.24896,0.16598c0.07667,0.03176 0.0893,0.05123 0.16598,0.08299c0.10843,0.04491 0.10729,0.10729 0.16597,0.16598c0.05868,0.05868 0.03936,0.09538 0.08299,0.16598c0.09756,0.15785 0.20405,0.14053 0.24896,0.24896c0.06352,0.15334 0.12106,0.14053 0.16598,0.24896c0.03176,0.07667 0.08299,0.16598 0.16597,0.24896c0.08299,0.08299 0.19028,0.02431 0.24896,0.08299c0.05868,0.05868 0.12106,0.14053 0.16597,0.24896c0.03176,0.07667 0.08299,0.24896 0.16598,0.33195l0.08299,0.08299" id="svg_9" stroke="#000" fill="none"/>
 </g>
</svg>