<svg width="22" height="10" xmlns="http://www.w3.org/2000/svg">
 <g id="Layer_1">
  <title>Layer 1</title>
  <ellipse ry="4.74041" rx="5.34236" id="svg_1" cy="4.77427" cx="9.94658" stroke="#000" fill="#7AD6CA"/>
  <path d="m5.50715,4.77427c0.15049,0 0.23177,-0.05186 0.45147,0c0.16375,0.03866 0.22573,0.07524 0.30098,0.07524c0.07524,0 0.15049,0 0.22573,0c0.07524,0 0.15049,0.07524 0.22573,0.07524c0.07524,0 0.15049,0 0.22573,0c0.07524,0 0.13723,0.03659 0.30098,0.07524c0.07323,0.01729 0.15049,0 0.45147,0c0.07524,0 0.30098,0 0.60196,0c0.15049,0 0.45147,0 0.60196,0c0.22573,0 0.30098,0 0.45147,0c0.07524,0 0.22573,0 0.30098,0c0.15049,0 0.22573,0 0.37622,0c0.07524,0 0.22573,0 0.30098,0c0.15049,0 0.22573,0 0.37622,0c0.07524,0 0.22573,0 0.30098,0c0.15049,0 0.37622,0 0.45147,0c0.15049,0 0.22573,0 0.37622,0c0.07524,0 0.22573,0 0.30098,0c0.07524,0 0.15049,0 0.22573,0c0.07524,0 0.12845,-0.09728 0.07524,-0.15049c-0.05321,-0.05321 -0.17253,-0.09728 -0.22573,-0.15049c-0.05321,-0.05321 -0.22775,-0.20845 -0.30098,-0.22573c-0.16375,-0.03866 -0.2267,-0.13844 -0.30098,-0.15049c-0.23487,-0.03811 -0.22896,-0.12868 -0.30098,-0.15049c-0.25966,-0.07862 -0.23146,-0.19694 -0.30098,-0.22573c-0.19662,-0.08144 -0.23697,-0.18618 -0.30098,-0.22573c-0.14312,-0.08846 -0.14553,-0.23659 -0.30098,-0.30098c-0.21983,-0.09106 -0.23146,-0.19694 -0.30098,-0.22573c-0.09831,-0.04072 -0.18501,-0.12742 -0.22573,-0.22573c-0.02879,-0.06952 -0.07524,-0.15049 -0.15049,-0.22573c-0.07524,-0.07524 -0.17253,-0.17253 -0.22573,-0.22573c-0.10641,-0.10641 -0.15622,-0.19694 -0.22573,-0.22573c-0.09831,-0.04072 -0.26646,-0.12742 -0.22573,-0.22573c0.02879,-0.06952 0.19457,-0.10641 0.30098,0c0.05321,0.05321 0.1525,0.1332 0.22573,0.15049c0.16375,0.03866 0.23146,0.04645 0.30098,0.07524c0.09831,0.04072 0.17253,0.02204 0.22573,0.07524c0.05321,0.05321 0.05218,0.10977 0.15049,0.15049c0.06952,0.02879 0.07524,0.07524 0.15049,0.07524c0.07524,0 0.15622,0.19694 0.22573,0.22573c0.19662,0.08144 0.17253,0.24777 0.22573,0.30098c0.05321,0.05321 0.09728,0.09728 0.15049,0.15049c0.05321,0.05321 0.19668,0.02235 0.37622,0.22573c0.11135,0.12613 0.13728,0.15785 0.22573,0.30098c0.03956,0.06401 0.16642,0.20422 0.37622,0.37622c0.08229,0.06746 0.09728,0.09728 0.15049,0.15049c0.05321,0.05321 0.07524,0.07524 0.07524,0.30098c0,0.15049 0.10977,0.27791 0.15049,0.37622c0.0288,0.06952 0,0.22573 -0.07524,0.22573c-0.07524,0 -0.15049,0.07524 -0.22573,0.15049c-0.07524,0.07524 -0.15049,0.15049 -0.22573,0.22573c-0.07524,0.07524 -0.15622,0.12169 -0.22573,0.15049c-0.09831,0.04072 -0.17253,0.09728 -0.22573,0.15049c-0.05321,0.05321 -0.05218,0.10977 -0.15049,0.15049c-0.06952,0.0288 -0.06416,0.08827 -0.15049,0.15049c-0.13649,0.09838 -0.23146,0.12169 -0.30098,0.15049c-0.09831,0.04072 -0.05211,0.16449 -0.15049,0.30098c-0.06222,0.08633 -0.15622,0.19694 -0.22573,0.22573c-0.09831,0.04072 -0.15049,0.15049 -0.22573,0.22573c-0.07524,0.07524 -0.15049,0.07524 -0.15049,0.15049l0,0.07524l-0.07524,0.07524" id="svg_3" stroke="#000" fill="none"/>
 </g>
</svg>